<svg width="128" height="128" viewBox="0 0 128 128" fill="none" xmlns="http://www.w3.org/2000/svg">
  <rect width="128" height="128" rx="24" fill="#6366F1"/>
  <path d="M32 48C32 44.6863 34.6863 42 38 42H90C93.3137 42 96 44.6863 96 48V56C96 59.3137 93.3137 62 90 62H38C34.6863 62 32 59.3137 32 56V48Z" fill="white"/>
  <path d="M32 72C32 68.6863 34.6863 66 38 66H74C77.3137 66 80 68.6863 80 72V80C80 83.3137 77.3137 86 74 86H38C34.6863 86 32 83.3137 32 80V72Z" fill="white" opacity="0.8"/>
  <circle cx="100" cy="76" r="12" fill="#10B981"/>
  <path d="M96 76L99 79L104 74" stroke="white" stroke-width="2" stroke-linecap="round" stroke-linejoin="round"/>
</svg>
